<svg xmlns="http://www.w3.org/2000/svg" xmlns:xlink="http://www.w3.org/1999/xlink" width="500" zoomAndPan="magnify" viewBox="0 0 375 374.999991" height="500" preserveAspectRatio="xMidYMid meet" version="1.0"><defs><g/><clipPath id="39a3df91f0"><path d="M 95.25 94.574219 L 279.75 94.574219 L 279.75 280.574219 L 95.25 280.574219 Z M 95.25 94.574219 " clip-rule="nonzero"/></clipPath></defs><g clip-path="url(#39a3df91f0)"><path fill="#79c6af" d="M 217.6875 94.722656 L 217.6875 97.296875 L 228.292969 97.296875 C 234.378906 97.296875 239.085938 98.679688 242.347656 101.503906 C 245.613281 104.332031 247.308594 108.851562 247.308594 115.257812 L 247.308594 240.863281 L 150.351562 94.722656 L 95.25 94.722656 L 95.25 97.296875 L 105.105469 97.296875 C 111.191406 97.296875 115.898438 98.679688 119.285156 101.378906 C 122.675781 104.078125 124.371094 108.414062 124.371094 114.503906 L 124.371094 120.472656 L 126.941406 120.472656 L 126.941406 110.046875 L 240.027344 280.429688 L 249.878906 280.429688 L 249.878906 115.507812 C 249.878906 108.914062 251.574219 104.269531 254.964844 101.503906 C 258.351562 98.742188 263.058594 97.296875 269.144531 97.296875 L 279.75 97.296875 L 279.75 94.722656 Z M 131.898438 273.644531 C 128.636719 270.882812 126.941406 266.234375 126.941406 259.640625 L 124.371094 259.640625 C 124.371094 266.234375 122.675781 270.882812 119.285156 273.644531 C 115.898438 276.410156 111.191406 277.792969 105.105469 277.792969 L 95.25 277.792969 L 95.25 280.429688 L 157.628906 280.429688 L 157.628906 277.792969 L 145.957031 277.792969 C 139.871094 277.792969 135.164062 276.410156 131.898438 273.644531 Z M 131.898438 273.644531 " fill-opacity="1" fill-rule="nonzero"/></g><g fill="#ffffff" fill-opacity="1"><g transform="translate(132.545993, 254.740764)"><g><path d="M -15.398438 -1.890625 L 0 -1.890625 L 0 -4.113281 L -10.757812 -4.113281 L 0 -11.546875 L 0 -13.308594 L -15.398438 -13.308594 L -15.398438 -11.109375 L -4.554688 -11.109375 L -15.398438 -3.609375 Z M -15.398438 -1.890625 "/></g></g></g><g fill="#ffffff" fill-opacity="1"><g transform="translate(132.545993, 237.385465)"><g><path d="M -7.699219 -0.769531 C -3.253906 -0.769531 0.285156 -4.3125 0.285156 -8.753906 C 0.285156 -13.199219 -3.253906 -16.761719 -7.699219 -16.761719 C -12.144531 -16.761719 -15.707031 -13.199219 -15.707031 -8.753906 C -15.707031 -4.3125 -12.144531 -0.769531 -7.699219 -0.769531 Z M -7.699219 -3.058594 C -10.867188 -3.058594 -13.417969 -5.585938 -13.417969 -8.753906 C -13.417969 -11.921875 -10.867188 -14.472656 -7.699219 -14.472656 C -4.53125 -14.472656 -2 -11.921875 -2 -8.753906 C -2 -5.585938 -4.53125 -3.058594 -7.699219 -3.058594 Z M -7.699219 -3.058594 "/></g></g></g><g fill="#ffffff" fill-opacity="1"><g transform="translate(132.545993, 217.544601)"><g><path d="M -13.441406 -4.796875 L 0 -4.796875 L 0 -7.015625 L -13.441406 -7.015625 L -13.441406 -11.660156 L -15.550781 -11.660156 L -15.550781 -0.132812 L -13.441406 -0.132812 Z M -13.441406 -4.796875 "/></g></g></g><g fill="#ffffff" fill-opacity="1"><g transform="translate(132.545993, 203.576694)"><g><path d="M -2.222656 -11.285156 L -2.222656 -4.136719 L -6.753906 -4.136719 L -6.753906 -11.109375 L -8.996094 -11.109375 L -8.996094 -4.136719 L -13.332031 -4.136719 L -13.332031 -11.261719 L -15.550781 -11.261719 L -15.550781 -1.890625 L 0 -1.890625 L 0 -11.285156 Z M -2.222656 -11.285156 "/></g></g></g><g fill="#ffffff" fill-opacity="1"><g transform="translate(132.545993, 189.146874)"><g><path d="M -11.417969 -9.589844 L -11.503906 -11.789062 C -14.320312 -11.394531 -15.550781 -8.929688 -15.550781 -6.554688 C -15.550781 -4.773438 -14.847656 -2.925781 -13.507812 -1.890625 C -12.757812 -1.320312 -11.878906 -1.035156 -10.953125 -1.035156 C -10.84375 -1.035156 -10.710938 -1.054688 -10.582031 -1.054688 L -10.601562 -1.054688 C -7.390625 -1.296875 -6.863281 -4.113281 -6.621094 -6.511719 C -6.46875 -8.050781 -6.269531 -9.636719 -5.101562 -9.898438 C -4.90625 -9.941406 -4.730469 -9.964844 -4.574219 -9.964844 C -2.992188 -9.964844 -2.066406 -8.160156 -2.066406 -6.511719 C -2.066406 -5.082031 -2.816406 -3.34375 -4.246094 -3.191406 L -4.15625 -3.191406 L -4.488281 -3.167969 L -4.445312 -0.925781 L -4.027344 -0.945312 C -1.277344 -1.230469 0.132812 -4.113281 0.132812 -6.488281 C 0.132812 -9.261719 -1.582031 -12.207031 -4.554688 -12.207031 C -4.863281 -12.207031 -5.234375 -12.164062 -5.566406 -12.097656 C -8.027344 -11.503906 -8.578125 -8.886719 -8.84375 -6.773438 C -8.996094 -5.058594 -9.21875 -3.277344 -11 -3.277344 C -11.4375 -3.277344 -11.878906 -3.386719 -12.207031 -3.652344 C -13.023438 -4.289062 -13.375 -5.457031 -13.375 -6.511719 C -13.375 -7.832031 -12.78125 -9.28125 -11.417969 -9.589844 Z M -11.417969 -9.589844 "/></g></g></g><g fill="#ffffff" fill-opacity="1"><g transform="translate(132.545993, 173.903196)"><g/></g></g><g fill="#ffffff" fill-opacity="1"><g transform="translate(132.545993, 166.270159)"><g><path d="M -9.988281 -13.703125 L -9.988281 -16.125 C -14.167969 -15.289062 -15.640625 -11.660156 -15.640625 -8.644531 C -15.640625 -4.3125 -12.320312 -0.925781 -7.675781 -0.925781 C -3.058594 -0.925781 0.265625 -4.246094 0.265625 -8.644531 C 0.265625 -11.503906 -1.824219 -14.714844 -4.816406 -15.792969 L -4.796875 -15.792969 C -5.324219 -16.015625 -6.203125 -16.125 -7.523438 -16.234375 L -7.523438 -7.765625 L -5.257812 -7.765625 L -5.257812 -13.574219 C -2.96875 -12.648438 -1.914062 -10.582031 -1.914062 -8.644531 C -1.914062 -5.566406 -4.355469 -3.191406 -7.675781 -3.191406 C -10.976562 -3.191406 -13.375 -5.566406 -13.375 -8.644531 C -13.375 -10.648438 -12.515625 -13.066406 -9.988281 -13.703125 Z M -9.988281 -13.703125 "/></g></g></g><g fill="#ffffff" fill-opacity="1"><g transform="translate(132.545993, 146.715251)"><g><path d="M -7.699219 -0.769531 C -3.253906 -0.769531 0.285156 -4.3125 0.285156 -8.753906 C 0.285156 -13.199219 -3.253906 -16.761719 -7.699219 -16.761719 C -12.144531 -16.761719 -15.707031 -13.199219 -15.707031 -8.753906 C -15.707031 -4.3125 -12.144531 -0.769531 -7.699219 -0.769531 Z M -7.699219 -3.058594 C -10.867188 -3.058594 -13.417969 -5.585938 -13.417969 -8.753906 C -13.417969 -11.921875 -10.867188 -14.472656 -7.699219 -14.472656 C -4.53125 -14.472656 -2 -11.921875 -2 -8.753906 C -2 -5.585938 -4.53125 -3.058594 -7.699219 -3.058594 Z M -7.699219 -3.058594 "/></g></g></g><g fill="#ffffff" fill-opacity="1"><g transform="translate(132.545993, 126.877487)"><g/></g></g></svg>